<svg xmlns="http://www.w3.org/2000/svg" viewBox="0 0 73.56 58.33"><defs><style>.cls-1{fill:#040000;}</style></defs><g id="圖層_2" data-name="圖層 2"><g id="圖層_1-2" data-name="圖層 1"><path class="cls-1" d="M.36,30.25c.23-5.8,5.14-10.08,10.21-9.71A9.72,9.72,0,0,1,19,27.84a9,9,0,0,1,.28,2.31V48.7a9.63,9.63,0,0,1-9.63,9.63h0A9.64,9.64,0,0,1,0,48.51Z"/><circle class="cls-1" cx="9.63" cy="8.43" r="8.43"/><path class="cls-1" d="M27.51,30.25c.23-5.8,5.14-10.08,10.22-9.71a9.72,9.72,0,0,1,8.4,7.3,8.55,8.55,0,0,1,.28,2.31V48.7a9.63,9.63,0,0,1-9.63,9.63h0a9.62,9.62,0,0,1-9.62-9.82Z"/><circle class="cls-1" cx="36.78" cy="8.43" r="8.43"/><path class="cls-1" d="M54.67,30.25c.22-5.8,5.13-10.08,10.21-9.71a9.73,9.73,0,0,1,8.41,7.3,9,9,0,0,1,.27,2.31V48.7a9.63,9.63,0,0,1-9.63,9.63h0a9.62,9.62,0,0,1-9.62-9.82Z"/><circle class="cls-1" cx="63.93" cy="8.43" r="8.43"/></g></g></svg>